Title:
Camille Redouble Aka Camille Rewinds

Country:
France, 2012

Language:
French

Subtitle:
French

Director:
Noémie Lvovsky

Writers:
Maud Ameline (screenplay), Noémie Lvovsky (screenplay)

Stars:
Noémie Lvovsky, Samir Guesmi, Judith Chemla

Synopsis:
Camille was sixteen years-old when she met Eric. They fell madly in love and had a daughter.... 25 years later: Eric is leaving Camille for a younger woman. That's New Year's Eve, and Camille suddenly finds herself back in her past. She is sixteen again and has returned to her parents, her girlfriends, her childhood... and Eric. Will she flee and try to change the course of their lives? Will she fall in love with him again, even though she knows how their story will end?

Imdb: 
http://www.imdb.com/title/tt2253939

Trailer: 
http://www.bandes-annonces.fr/film-2012/bande-annonce-camilleredouble.html

Trivia:
Official Selection Cannes Film Festival 2012. Nominiees for a 13 Cèsars.


Media Info:

General
Complete name                            : Camille.Redouble.[Camille.Rewinds].DVDRip.XviD.AC3.HORiZON-ArtSubs
Format                                   : AVI
Format/Info                              : Audio Video Interleave
File size                                : 1.36 GiB
Duration                                 : 1h 50mn
Overall bit rate                         : 1 767 Kbps
Writing application                      : FairUse Wizard - http://fairusewizard.com
Writing library                          : The best and REALLY easy backup tool

Video
ID                                       : 0
Format                                   : MPEG-4 Visual
Format profile                           : Advanced Simple@L5
Format settings, BVOP                    : 1
Format settings, QPel                    : No
Format settings, GMC                     : No warppoints
Format settings, Matrix                  : Default (MPEG)
Muxing mode                              : Packed bitstream
Codec ID                                 : XVID
Codec ID/Hint                            : XviD
Duration                                 : 1h 50mn
Bit rate                                 : 1 309 Kbps
Width                                    : 624 pixels
Height                                   : 336 pixels
Display aspect ratio                     : 1.85:1
Frame rate                               : 25.000 fps
Color space                              : YUV
Chroma subsampling                       : 4:2:0
Bit depth                                : 8 bits
Scan type                                : Progressive
Compression mode                         : Lossy
Bits/(Pixel*Frame)                       : 0.250
Stream size                              : 1.01 GiB (74%)
Writing library                          : XviD 1.2.1 (UTC 2008-12-04)

Audio
ID                                       : 1
Format                                   : AC-3
Format/Info                              : Audio Coding 3
Mode extension                           : CM (complete main)
Format settings, Endianness              : Big
Codec ID                                 : 2000
Duration                                 : 1h 50mn
Bit rate mode                            : Constant
Bit rate                                 : 448 Kbps
Channel(s)                               : 6 channels
Channel positions                        : Front: L C R, Side: L R, LFE
Sampling rate                            : 48.0 KHz
Bit depth                                : 16 bits
Compression mode                         : Lossy
Stream size                              : 354 MiB (25%)
Alignment                                : Split accross interleaves
Interleave, duration                     : 40 ms (1.00 video frame)
Interleave, preload duration             : 500 ms

